<mxfile host="app.diagrams.net" modified="2022-05-31T06:50:24.771Z" agent="5.0 (Windows NT 10.0; Win64; x64) AppleWebKit/537.36 (KHTML, like Gecko) Chrome/102.0.5005.62 Safari/537.36" etag="8jU07V-K8VugQiYbWreN" version="18.1.3" type="github">
  <diagram name="Page-1" id="12e1b939-464a-85fe-373e-61e167be1490">
    <mxGraphModel dx="1278" dy="547" grid="0" gridSize="10" guides="1" tooltips="1" connect="1" arrows="1" fold="1" page="1" pageScale="1.5" pageWidth="1169" pageHeight="826" background="none" math="0" shadow="0">
      <root>
        <mxCell id="0" />
        <mxCell id="1" parent="0" />
        <mxCell id="tsflieEWywzMx-2usuDZ-33" value="" style="shape=folder;spacingTop=10;tabWidth=100;tabHeight=25;tabPosition=left;html=1;dashed=1;" parent="1" vertex="1">
          <mxGeometry x="569" y="74" width="316" height="301" as="geometry" />
        </mxCell>
        <mxCell id="tsflieEWywzMx-2usuDZ-24" value="ZJARRunner" style="html=1;shadow=0;dashed=0;shape=mxgraph.bootstrap.rrect;rSize=5;strokeColor=none;strokeWidth=1;fillColor=#1CA5B8;fontColor=#FFFFFF;whiteSpace=wrap;align=center;verticalAlign=middle;spacingLeft=0;fontStyle=0;fontSize=16;spacing=5;" parent="1" vertex="1">
          <mxGeometry x="704" y="129" width="153" height="42" as="geometry" />
        </mxCell>
        <mxCell id="tsflieEWywzMx-2usuDZ-25" value="ZJDesigner" style="html=1;shadow=0;dashed=0;shape=mxgraph.bootstrap.rrect;rSize=5;strokeColor=none;strokeWidth=1;fillColor=#1CA5B8;fontColor=#FFFFFF;whiteSpace=wrap;align=center;verticalAlign=middle;spacingLeft=0;fontStyle=0;fontSize=16;spacing=5;" parent="1" vertex="1">
          <mxGeometry x="309" y="131" width="153" height="42" as="geometry" />
        </mxCell>
        <mxCell id="tsflieEWywzMx-2usuDZ-26" value="*.ZJP" style="html=1;shadow=0;dashed=0;shape=mxgraph.bootstrap.rrect;rSize=5;strokeColor=none;strokeWidth=1;fillColor=#343A40;fontColor=#ffffff;whiteSpace=wrap;align=center;verticalAlign=middle;spacingLeft=0;fontStyle=0;fontSize=16;spacing=5;" parent="1" vertex="1">
          <mxGeometry x="614" y="311" width="114" height="42" as="geometry" />
        </mxCell>
        <mxCell id="tsflieEWywzMx-2usuDZ-29" value="输入/输出&lt;br&gt;" style="endArrow=classic;startArrow=classic;html=1;rounded=0;elbow=vertical;strokeColor=#000000;" parent="1" source="tsflieEWywzMx-2usuDZ-26" target="tsflieEWywzMx-2usuDZ-25" edge="1">
          <mxGeometry width="50" height="50" relative="1" as="geometry">
            <mxPoint x="514" y="207" as="sourcePoint" />
            <mxPoint x="564" y="157" as="targetPoint" />
          </mxGeometry>
        </mxCell>
        <mxCell id="tsflieEWywzMx-2usuDZ-30" value="输入" style="endArrow=classic;html=1;rounded=0;strokeColor=#000000;elbow=vertical;entryX=0.515;entryY=1.095;entryDx=0;entryDy=0;entryPerimeter=0;" parent="1" target="tsflieEWywzMx-2usuDZ-24" edge="1">
          <mxGeometry width="50" height="50" relative="1" as="geometry">
            <mxPoint x="712" y="309" as="sourcePoint" />
            <mxPoint x="747" y="288" as="targetPoint" />
          </mxGeometry>
        </mxCell>
        <mxCell id="tsflieEWywzMx-2usuDZ-34" value="&lt;h1&gt;ZJDesigner&lt;/h1&gt;&lt;p&gt;ZJ 的AR设计平台，主要帮助设计师高效进行设计，快速实现产品输出。&lt;/p&gt;&lt;p&gt;运行环境: Win32/Win64&lt;/p&gt;&lt;p&gt;&lt;br&gt;&lt;/p&gt;" style="text;html=1;strokeColor=none;fillColor=none;spacing=5;spacingTop=-20;whiteSpace=wrap;overflow=hidden;rounded=0;" parent="1" vertex="1">
          <mxGeometry x="94" y="40" width="190" height="120" as="geometry" />
        </mxCell>
        <mxCell id="tsflieEWywzMx-2usuDZ-35" value="" style="endArrow=none;dashed=1;html=1;dashPattern=1 3;strokeWidth=2;rounded=0;elbow=vertical;" parent="1" target="tsflieEWywzMx-2usuDZ-36" edge="1">
          <mxGeometry width="50" height="50" relative="1" as="geometry">
            <mxPoint x="886" y="120" as="sourcePoint" />
            <mxPoint x="936" y="70" as="targetPoint" />
          </mxGeometry>
        </mxCell>
        <mxCell id="tsflieEWywzMx-2usuDZ-36" value="&lt;h1&gt;ZJARRunner&lt;/h1&gt;&lt;p&gt;主要是设计成果展示，即产品功能展示。&lt;/p&gt;&lt;p&gt;&lt;br&gt;&lt;/p&gt;&lt;p&gt;运行环境：&lt;/p&gt;&lt;p&gt;&amp;nbsp; 1. Win32/Win64 主要逻辑排错。&lt;/p&gt;&lt;p&gt;&amp;nbsp; 2. Linux(X86/ARM) 目前还没有客户, 业界知名的车厂是Tesla 用的是linux 直接上面开发应用的。&lt;/p&gt;&lt;p&gt;&amp;nbsp; 3.&amp;nbsp; Yocto (ARM) 光机上系统&lt;/p&gt;&lt;p&gt;&amp;nbsp; 4.&amp;nbsp; QNX （ARM） 传统车企以及欧洲老牌车企还在使用 。&amp;nbsp;&lt;/p&gt;&lt;p&gt;&amp;nbsp; &amp;nbsp;5. Android (ARM/x86)&amp;nbsp; 造车新势力，以及国外很多车企也都转到这个平台。甚至有在QNX上跑hypervisor 层，这个虚拟机就是Android,&amp;nbsp; 主要车载娱乐生态就在Android 上，传统的仪表，控制还在QNX上。&lt;/p&gt;&lt;p&gt;&amp;nbsp;&lt;/p&gt;" style="text;html=1;strokeColor=none;fillColor=none;spacing=5;spacingTop=-20;whiteSpace=wrap;overflow=hidden;rounded=0;" parent="1" vertex="1">
          <mxGeometry x="953" y="46" width="190" height="468" as="geometry" />
        </mxCell>
        <mxCell id="tsflieEWywzMx-2usuDZ-37" value="不支持" style="text;html=1;strokeColor=#FF3333;fillColor=none;align=center;verticalAlign=middle;whiteSpace=wrap;rounded=0;" parent="1" vertex="1">
          <mxGeometry x="1018" y="428" width="49" height="20" as="geometry" />
        </mxCell>
        <mxCell id="tsflieEWywzMx-2usuDZ-38" value="不支持" style="text;html=1;strokeColor=#FF3333;fillColor=none;align=center;verticalAlign=middle;whiteSpace=wrap;rounded=0;" parent="1" vertex="1">
          <mxGeometry x="1090" y="311" width="49" height="20" as="geometry" />
        </mxCell>
      </root>
    </mxGraphModel>
  </diagram>
</mxfile>
